# xmcd
#
# Track frame offsets: 
#        182
#        24117
#        48207
#        69782
#        95000
#        119700
#        139442
#        161090
#        186212
#        205935
#        228607
#        254665
#
# Disc length: 3669 seconds
#
# Revision: 4
# Processed by: cddbd v1.5.2PL0 Copyright (c) Steve Scherf et al.
# Submitted via: ExactAudioCopyFreeDBPlugin 1.0
#
DISCID=ae0e530c
DTITLE=Men At Large - One Size Fits All
DYEAR=1994
DGENRE=R&B
TTITLE0=I'm In A Freaky Mood
TTITLE1=Let's Talk About It
TTITLE2=Holiday
TTITLE3=Good Things Don't last
TTITLE4=Men At Large Feat. Keith Sweat and Gerald Levert - Don't Cry
TTITLE5=Feet Wet
TTITLE6=Better Off By Myself
TTITLE7=First Day
TTITLE8=I Wanna Roll
TTITLE9=Funny Feeling
TTITLE10=Will You Marry Me
TTITLE11=Do Ya (Bonus Track)
EXTD=
EXTT0=
EXTT1=
EXTT2=
EXTT3=
EXTT4=
EXTT5=
EXTT6=
EXTT7=
EXTT8=
EXTT9=
EXTT10=
EXTT11=
PLAYORDER=
